<svg width="296" height="249.263" version="1.1" viewBox="0 0 78.3166 65.9509" xmlns="http://www.w3.org/2000/svg">
 <style/>
 <g transform="translate(-45.1304 -276.461)" fill="#e5e9f0" stroke-opacity="0">
  <path d="m84.2887 279.439c-7.60024 0-13.7473 6.2125-13.7473 13.894 0 10.4208 13.7473 25.8037 13.7473 25.8037s13.7474-15.3829 13.7474-25.8037c0-7.6815-6.14697-13.894-13.7474-13.894zm0 4.85939 6.8437 3.77338 3.12702 1.72347-3.45224 1.90282-6.51848 3.59406-9.97068-5.49688zm-6.34503 8.28245 6.34503 3.49955 6.34503-3.49955v3.66432l-6.34503 3.49953-6.34503-3.49953z"/>
  <g transform="translate(1.05624)" style="font-variant-caps:normal;font-variant-east-asian:normal;font-variant-ligatures:normal;font-variant-numeric:normal" aria-label="UbiCate">
   <path d="m62.539 324.073v8.12986q0 2.02611-1.27162 3.20448-1.26314 1.17836-3.4588 1.17836-2.16175 0-3.43336-1.14445-1.27162-1.14446-1.29705-3.14513v-8.22312h2.54323v8.14682q0 1.21227.576466 1.77178.584943.55104 1.61071.55104 2.14479 0 2.1787-2.255v-8.21464z" style="font-variant-caps:normal;font-variant-east-asian:normal;font-variant-ligatures:normal;font-variant-numeric:normal"/>
   <path d="m72.7289 331.915q0 2.20414-.940996 3.44184-.940995 1.22923-2.62801 1.22923-1.49203 0-2.38216-1.14445l-.110207.9749h-2.20414v-13.0214h2.44998v4.67107q.847744-.99186 2.22957-.99186 1.67853 0 2.62801 1.23771.95795 1.22923.95795 3.46727zm-2.44998-.17803q0-1.3903-.440827-2.0261-.440827-.64429-1.314-.64429-1.16989 0-1.61071.95795v3.61987q.449304.96643 1.62767.96643 1.18684 0 1.55985-1.16989.178026-.55951.178026-1.70397z" style="font-variant-caps:normal;font-variant-east-asian:normal;font-variant-ligatures:normal;font-variant-numeric:normal"/>
   <path d="m76.815 336.416h-2.45846v-9.17259h2.45846zm-2.60257-11.5463q0-.55104.36453-.90709.373007-.35605 1.00882-.35605.627331 0 1.00034.35605.373008.35605.373008.90709 0 .55951-.381485.91556-.373008.35605-.991861.35605t-1.00034-.35605q-.373007-.35605-.373007-.91556z" style="font-variant-caps:normal;font-variant-east-asian:normal;font-variant-ligatures:normal;font-variant-numeric:normal"/>
   <path d="m88.6919 332.305q-.144117 1.9922-1.47508 3.13666-1.32248 1.14445-3.49271 1.14445-2.37368 0-3.73855-1.59376-1.35639-1.60223-1.35639-4.39131v-.75449q0-1.78027.627331-3.13666t1.78874-2.07697q1.16989-.72906 2.71278-.72906 2.13632 0 3.44184 1.14445 1.30553 1.14446 1.50898 3.21295h-2.54323q-.09325-1.19532-.669717-1.72939-.567989-.54256-1.73788-.54256-1.27162 0-1.90742.91556-.627331.90709-.644286 2.82299v.93252q0 2.00068.601899 2.92472.610375.92404 1.9159.92404 1.17836 0 1.75483-.53408.584943-.54256.669718-1.67006z" style="font-variant-caps:normal;font-variant-east-asian:normal;font-variant-ligatures:normal;font-variant-numeric:normal"/>
   <path d="m95.5163 336.416q-.169549-.33062-.245846-.82231-.890131.99186-2.31434.99186-1.34791 0-2.23804-.77992-.881654-.77993-.881654-1.96677 0-1.45812 1.07664-2.23804 1.08511-.77993 3.12818-.78841h1.1275v-.5256q0-.63581-.330621-1.01729-.322142-.38149-1.02577-.38149-.618853 0-.974906.29672-.347575.29671-.347575.81383h-2.44998q0-.79688.491691-1.47508.491692-.67819 1.3903-1.05968.898608-.38996 2.01763-.38996 1.69549 0 2.68735.85622 1.00034.84775 1.00034 2.39064v3.97592q.0085 1.30553.364529 1.97525v.14411zm-2.02611-1.70396q.542557 0 1.00034-.23737.457782-.24585.678196-.65276v-1.57681h-.915564q-1.8396 0-1.95829 1.27162l-.0085.14411q0 .45779.322142.7545.322143.29671.881654.29671z" style="font-variant-caps:normal;font-variant-east-asian:normal;font-variant-ligatures:normal;font-variant-numeric:normal"/>
   <path d="m102.459 324.989v2.255h1.56832v1.79722h-1.56832v4.57782q0 .50864.19498.72906.19498.22041.74601.22041.40692 0 .72058-.0593v1.85656q-.72058.22041-1.48355.22041-2.57714 0-2.628-2.60257v-4.94235h-1.33944v-1.79722h1.33944v-2.255z" style="font-variant-caps:normal;font-variant-east-asian:normal;font-variant-ligatures:normal;font-variant-numeric:normal"/>
   <path d="m109.614 336.586q-2.01763 0-3.28924-1.23771-1.26314-1.2377-1.26314-3.29772v-.23737q0-1.38182.53408-2.46693.53408-1.09359 1.50898-1.67854.98338-.59342 2.23805-.59342 1.88199 0 2.95862 1.18684 1.08512 1.18685 1.08512 3.36555v1.00034h-5.84096q.11868.8986.7121 1.44116.6019.54256 1.51747.54256 1.41573 0 2.21261-1.02577l1.20379 1.34791q-.55103.77992-1.49203 1.22075-.94099.43235-2.08545.43235zm-.27975-7.52797q-.72906 0-1.18684.4917-.44931.49169-.57647 1.40725h3.40793v-.19498q-.0169-.81384-.44083-1.25466-.42387-.44931-1.20379-.44931z" style="font-variant-caps:normal;font-variant-east-asian:normal;font-variant-ligatures:normal;font-variant-numeric:normal"/>
  </g>
 </g>
</svg>
